<?xml version="1.0" encoding="utf-8"?><svg version="1.1" id="Layer_1" xmlns="http://www.w3.org/2000/svg" xmlns:xlink="http://www.w3.org/1999/xlink" x="0px" y="0px" viewBox="0 0 122.88 117.84" style="enable-background:new 0 0 122.88 117.84" xml:space="preserve"><g><path d="M71.02,15.71L47.3,58.27l17.65,17.65l7.06-3.9L71.02,15.71L71.02,15.71z M87.88,67.71c-0.31,0.39-0.77,0.66-1.29,0.72 L65.85,79.88l-6.28,6.28c-0.49,0.49-0.75,0.76-0.99,1.01c-2.44,2.56-3.96,4.15-8.65,3.34c-3.8-0.66-8.03-3.23-11.34-6.56 c-3.22-3.24-5.65-7.26-6.09-11.04c-0.51-4.36,1.04-5.85,3.43-8.15c0.19-0.18,0.38-0.37,0.87-0.85l6.41-6.41 c0.06-0.08,0.12-0.17,0.19-0.24l26.2-47c0.02-0.04,0.04-0.07,0.06-0.11c1.65-2.95,3.63-5.43,5.84-7.19 c2.19-1.74,4.61-2.77,7.19-2.85c2.42-0.08,4.82-0.03,7.06,0.02c1.09,0.02,2.14,0.05,3.59,0.05c1.17,0,1.95-0.06,2.53-0.1 c1.04-0.08,1.63-0.12,2.45,0.17c0.97,0.35,1.56,0.95,2.92,2.33c0.1,0.1-0.28-0.28,0.81,0.81l14.75,14.75 c0.83,0.83,1.36,1.33,1.79,1.75c3,2.84,3.16,2.99,3.83,8.75c0.58,4.95,0.78,9.7-0.45,14.02c-1.27,4.46-4.01,8.35-9.29,11.38 c-0.04,0.02-0.07,0.05-0.11,0.07L87.88,67.71L87.88,67.71z M84.4,65.18L83.31,3.97c-0.17,0-0.33,0.01-0.5,0.01 c-1.69,0.05-3.34,0.78-4.88,2.01c-1.11,0.88-2.17,2.02-3.14,3.36c0.01,0.08,0.02,0.16,0.02,0.25l1.07,60.29L84.4,65.18L84.4,65.18z M87.2,3.96l1.05,59.09l22.44-12.4l0.05-0.03c4.27-2.45,6.47-5.55,7.48-9.07c1.06-3.7,0.86-7.98,0.33-12.51 c-0.51-4.35-0.62-4.45-2.64-6.37c-0.57-0.55-1.26-1.19-1.87-1.81L99.29,6.13c-0.48-0.48-0.23-0.23-0.81-0.82 C97.53,4.35,97.13,3.94,97,3.89c-0.02-0.01-0.32,0.02-0.85,0.06C95.49,4,94.59,4.07,93.34,4.07c-0.82,0-2.21-0.03-3.66-0.06 C88.87,3.99,88.04,3.97,87.2,3.96L87.2,3.96z M44.87,61.36l-5.3,5.3c-0.14,0.14-0.55,0.53-0.93,0.9c-1.54,1.48-2.54,2.44-2.25,4.9 c0.33,2.87,2.32,6.06,4.98,8.73c2.79,2.8,6.23,4.94,9.24,5.46c2.65,0.46,3.62-0.55,5.17-2.18c0.39-0.41,0.81-0.85,1.05-1.09 l5.04-5.04L44.87,61.36L44.87,61.36z M9.13,111.58c1.13,1.13,2.95,1.13,4.08,0c1.13-1.13,1.13-2.95,0-4.08 c-1.13-1.13-2.95-1.13-4.08,0C8.01,108.62,8.01,110.45,9.13,111.58L9.13,111.58z M14.93,86.14c1.13,1.13,2.95,1.13,4.08,0 c1.13-1.13,1.13-2.95,0-4.08c-1.13-1.13-2.95-1.13-4.08,0C13.81,83.19,13.81,85.01,14.93,86.14L14.93,86.14z M0.85,94.62 c1.13,1.13,2.95,1.13,4.08,0c1.13-1.13,1.13-2.95,0-4.08c-1.13-1.13-2.95-1.13-4.08,0C-0.28,91.66-0.28,93.49,0.85,94.62 L0.85,94.62z M12.13,97.36c1.13,1.13,2.95,1.13,4.08,0c1.13-1.13,1.13-2.95,0-4.08c-1.13-1.13-2.95-1.13-4.08,0 C11,94.41,11,96.23,12.13,97.36L12.13,97.36z M23.41,94.62c1.13,1.13,2.95,1.13,4.08,0c1.13-1.13,1.13-2.95,0-4.08 c-1.13-1.13-2.95-1.13-4.08,0C22.29,91.66,22.29,93.49,23.41,94.62L23.41,94.62z M26.09,86.2c1.13,1.13,2.95,1.13,4.08,0 c1.13-1.13,1.13-2.95,0-4.08c-1.13-1.13-2.95-1.13-4.08,0C24.96,83.25,24.96,85.08,26.09,86.2L26.09,86.2z M34.44,94.68 c1.13,1.13,2.95,1.13,4.08,0c1.13-1.13,1.13-2.95,0-4.08c-1.13-1.13-2.95-1.13-4.08,0C33.31,91.73,33.31,93.55,34.44,94.68 L34.44,94.68z M28.83,105.9c1.13,1.13,2.95,1.13,4.08,0c1.13-1.13,1.13-2.95,0-4.08c-1.13-1.13-2.95-1.13-4.08,0 C27.71,102.95,27.71,104.77,28.83,105.9L28.83,105.9z M20.54,116.99c1.13,1.13,2.95,1.13,4.08,0c1.13-1.13,1.13-2.95,0-4.08 c-1.13-1.13-2.95-1.13-4.08,0C19.42,114.04,19.42,115.87,20.54,116.99L20.54,116.99z M17.74,105.77c1.13,1.13,2.95,1.13,4.08,0 c1.13-1.13,1.13-2.95,0-4.08c-1.13-1.13-2.95-1.13-4.08,0C16.61,102.82,16.61,104.65,17.74,105.77L17.74,105.77z"/></g></svg>